<svg id="logosandtypes_com" data-name="logosandtypes com" xmlns="http://www.w3.org/2000/svg" viewBox="0 0 150 150"><defs><style>.cls-1{fill:none;}.cls-2{fill:#23b355;}.cls-3{fill:#02abaf;}.cls-4{fill:#4998d3;}.cls-5{fill:#8a278a;}.cls-6{fill:#ed1557;}.cls-7{fill:#f05223;}.cls-8{fill:#f7aa1b;}.cls-9{fill:#a6ce38;}</style></defs><path class="cls-1" d="M0,.2H150v150H0Z" transform="translate(0 -0.2)"/><path class="cls-2" d="M98.57,21.47a86.11,86.11,0,0,0-5.87-6.94c-6.46-6.87-9.92-8.23-12-8.65C74.59,4.44,68.27,8,64.43,11.29a40.19,40.19,0,0,0-8.61,9.14.55.55,0,0,0-.09.3V53.9a.52.52,0,0,0,.29.47.49.49,0,0,0,.24,0c.36.14,41.95-32.13,42.25-32.21A.52.52,0,0,0,98.57,21.47Z" transform="translate(0 -0.2)"/><path class="cls-3" d="M128.27,29.55c-5.83-8.7-19-8.78-28-7.35a.4.4,0,0,0-.26.14L76.62,45.79a.52.52,0,0,0-.13.55.51.51,0,0,0,.43.35l52.34,6.94a.54.54,0,0,0,.6-.46,88.29,88.29,0,0,0,.75-9.06C130.9,34.69,129.41,31.29,128.27,29.55Z" transform="translate(0 -0.2)"/><path class="cls-4" d="M145.37,76.11c-.25-5.46-3.14-9.2-5.68-12.5A39.72,39.72,0,0,0,130.56,55c-.38-.3-33.07,0-33.47-.1a.5.5,0,0,0-.47.31.52.52,0,0,0,0,.54l32.11,41.94a.51.51,0,0,0,.73.1,84.41,84.41,0,0,0,6.94-5.87c6.88-6.47,8.24-9.93,8.66-12A16.6,16.6,0,0,0,145.37,76.11Z" transform="translate(0 -0.2)"/><path class="cls-5" d="M128.71,99.53a.42.42,0,0,0-.14-.27L105.13,75.81a.53.53,0,0,0-.9.3l-6.94,52.34a.54.54,0,0,0,.46.6c3,.4,6.06.66,9.06.76h2.28c7.72,0,10.69-1.27,12.28-2.36C130.07,121.6,130.15,108.45,128.71,99.53Z" transform="translate(0 -0.2)"/><path class="cls-6" d="M95.74,95.81a.52.52,0,0,0-.56,0L53.25,127.92a.51.51,0,0,0-.1.73A84.41,84.41,0,0,0,59,135.59c6.47,6.88,9.92,8.24,11.95,8.65a17.67,17.67,0,0,0,3.84.3c5.47-.24,9.2-3.13,12.51-5.68a40,40,0,0,0,8.61-9.14.55.55,0,0,0,.09-.3V96.25A.5.5,0,0,0,95.74,95.81Z" transform="translate(0 -0.2)"/><path class="cls-7" d="M75.24,103.77a.51.51,0,0,0-.43-.35l-52.34-7a.52.52,0,0,0-.59.46,89.52,89.52,0,0,0-.77,9.06c-.28,9.43,1.27,12.83,2.35,14.56,5.84,8.71,19.08,8.8,28,7.36a.51.51,0,0,0,.26-.14l23.46-23.46A.52.52,0,0,0,75.24,103.77Z" transform="translate(0 -0.2)"/><path class="cls-8" d="M55,94.37,22.9,52.44a.51.51,0,0,0-.72-.11,86.7,86.7,0,0,0-6.95,5.88C8.36,64.67,7,68.13,6.58,70.16,5.14,76.33,8.67,82.64,12,86.48a40,40,0,0,0,9.14,8.61.53.53,0,0,0,.3.09H54.6a.52.52,0,0,0,.47-.29A.54.54,0,0,0,55,94.37Z" transform="translate(0 -0.2)"/><path class="cls-9" d="M54,21.06q-4.52-.6-9.06-.75C35.5,20,32.1,21.51,30.36,22.65c-8.7,5.85-8.78,19-7.35,28,0,.46,23.39,23.37,23.59,23.72a.48.48,0,0,0,.37.15.28.28,0,0,0,.18,0,.53.53,0,0,0,.36-.43l6.93-52.34A.54.54,0,0,0,54,21.06Z" transform="translate(0 -0.2)"/></svg>