<svg width="67" height="73" viewBox="0 0 67 73" fill="none" xmlns="http://www.w3.org/2000/svg">
<path d="M36.1664 72.3327C16.2242 72.3327 0 56.1085 0 36.1664C0 16.2242 16.2242 0 36.1664 0C37.1325 0 38.1223 0.0403228 39.1081 0.119789C40.1862 0.206908 41.1348 0.864719 41.5943 1.84364C42.0537 2.82256 41.9533 3.97277 41.3314 4.8575C37.7553 9.94369 35.865 15.9299 35.865 22.1687C35.865 29.791 38.7168 37.0649 43.8953 42.6509C49.0459 48.2071 56.0249 51.6009 63.5463 52.2072C64.6241 52.2941 65.573 52.9519 66.0325 53.9311C66.4919 54.91 66.3915 56.0602 65.7696 56.945C58.9949 66.5802 47.9284 72.3327 36.1664 72.3327ZM33.5747 6.1381C18.1653 7.45725 6.02773 20.4213 6.02773 36.1664C6.02773 52.785 19.5479 66.305 36.1664 66.305C44.2708 66.305 51.9794 63.0271 57.5986 57.3514C50.6862 55.707 44.3868 52.0474 39.4748 46.749C33.2599 40.045 29.8373 31.3156 29.8373 22.1687C29.8373 16.5453 31.1176 11.0921 33.5747 6.1381Z" fill="#010202"/>
</svg>