<svg width="115" height="115" viewBox="0 0 115 115" fill="none" xmlns="http://www.w3.org/2000/svg">
<path d="M57.2928 87.4316C40.6743 87.4316 27.1542 73.9114 27.1542 57.2929C27.1542 40.6744 40.6743 27.1543 57.2928 27.1543C73.9113 27.1543 87.4315 40.6744 87.4315 57.2929C87.4315 73.9114 73.9113 87.4316 57.2928 87.4316ZM57.2928 33.182C43.998 33.182 33.1819 43.9981 33.1819 57.2929C33.1819 70.5878 43.998 81.4038 57.2928 81.4038C70.5877 81.4038 81.4037 70.5878 81.4037 57.2929C81.4037 43.9981 70.5877 33.182 57.2928 33.182Z" fill="#010202"/>
<path d="M57.2634 22.3026C55.5988 22.3026 54.2495 20.9533 54.2495 19.2887V3.01386C54.2495 1.34932 55.5988 0 57.2634 0C58.9279 0 60.2772 1.34932 60.2772 3.01386V19.2887C60.2772 20.9533 58.9279 22.3026 57.2634 22.3026Z" fill="#010202"/>
<path d="M57.2634 114.527C55.5988 114.527 54.2495 113.177 54.2495 111.513V95.238C54.2495 93.5734 55.5988 92.2241 57.2634 92.2241C58.9279 92.2241 60.2772 93.5734 60.2772 95.238V111.513C60.2772 113.177 58.9279 114.527 57.2634 114.527Z" fill="#010202"/>
<path d="M19.2887 60.2772H3.01386C1.34932 60.2772 0 58.9279 0 57.2634C0 55.5988 1.34932 54.2495 3.01386 54.2495H19.2887C20.9533 54.2495 22.3026 55.5988 22.3026 57.2634C22.3026 58.9279 20.9533 60.2772 19.2887 60.2772Z" fill="#010202"/>
<path d="M111.513 60.2772H95.2381C93.5736 60.2772 92.2242 58.9279 92.2242 57.2634C92.2242 55.5988 93.5736 54.2495 95.2381 54.2495H111.513C113.178 54.2495 114.527 55.5988 114.527 57.2634C114.527 58.9279 113.178 60.2772 111.513 60.2772Z" fill="#010202"/>
<path d="M83.9488 33.5919C83.1775 33.5919 82.4061 33.2977 81.8176 32.7092C80.6407 31.5322 80.6407 29.6238 81.8176 28.4468L93.4925 16.7719C94.6695 15.5949 96.5779 15.5949 97.7549 16.7719C98.9317 17.9489 98.9317 19.8573 97.7549 21.0343L86.08 32.7092C85.4915 33.2977 84.72 33.5919 83.9488 33.5919Z" fill="#010202"/>
<path d="M18.9031 98.6375C18.1318 98.6375 17.3604 98.3433 16.7719 97.7548C15.5951 96.5778 15.5951 94.6695 16.7719 93.4925L28.4468 81.8176C29.6238 80.6406 31.5322 80.6406 32.7092 81.8176C33.886 82.9946 33.886 84.9029 32.7092 86.0799L21.0343 97.7548C20.4458 98.3433 19.6744 98.6375 18.9031 98.6375Z" fill="#010202"/>
<path d="M30.578 33.5919C29.8067 33.5919 29.0353 33.2977 28.4468 32.7092L16.7719 21.0343C15.5951 19.8573 15.5951 17.9489 16.7719 16.7719C17.9489 15.5949 19.8573 15.5949 21.0343 16.7719L32.7092 28.4468C33.886 29.6238 33.886 31.5322 32.7092 32.7092C32.1207 33.2977 31.3493 33.5919 30.578 33.5919Z" fill="#010202"/>
<path d="M95.6237 98.6375C94.8524 98.6375 94.081 98.3433 93.4925 97.7548L81.8176 86.0799C80.6407 84.9029 80.6407 82.9946 81.8176 81.8176C82.9946 80.6406 84.903 80.6406 86.08 81.8176L97.7549 93.4925C98.9317 94.6695 98.9317 96.5778 97.7549 97.7548C97.1664 98.3433 96.3949 98.6375 95.6237 98.6375Z" fill="#010202"/>
</svg>